<svg xmlns="http://www.w3.org/2000/svg" width="213" height="46" viewBox="0 0 213 46">
<g><defs><linearGradient id="af" x1="0" y1="0" x2="0" y2="1"><stop offset="0" stop-color="#3f3f3f"/><stop offset="1" stop-color="#1b1b1b"/></linearGradient><linearGradient id="as" x1="0" y1="0" x2="0" y2="1"><stop offset="0" stop-color="#101010"/><stop offset="1" stop-color="#202020"/></linearGradient><linearGradient id="ak" x1="0" y1="0" x2="0" y2="1"><stop offset="0" stop-color="#6e6e6e"/><stop offset="1" stop-color="#434343"/></linearGradient><filter id="ag" x="-60%" y="-60%" width="220%" height="220%"><feGaussianBlur stdDeviation="2.2"/></filter><clipPath id="aw"><rect x="4.5" y="6" width="96" height="34" rx="4"/></clipPath></defs>

<rect x="2.5" y="5.5" width="100" height="35" rx="6" fill="url(#af)" stroke="#0d0d0d"/>
<g clip-path="url(#aw)"><g >
<rect x="5.5" y="8.5" width="46" height="29" rx="4" fill="url(#as)" stroke="#000000" stroke-opacity="0.85"/>
<text x="28.5" y="28.4" text-anchor="middle" font-family="Arial, Helvetica, sans-serif" font-size="15" font-weight="bold" letter-spacing="0.5" fill="#00ccff" opacity="0.55" filter="url(#ag)">EIN</text><text x="28.5" y="28.4" text-anchor="middle" font-family="Arial, Helvetica, sans-serif" font-size="15" font-weight="bold" letter-spacing="0.5" fill="#00ccff">EIN</text>
<rect x="53.5" y="8.5" width="46" height="29" rx="4" fill="url(#ak)" stroke="#161616"/>
<path d="M55.5 10.5h42" stroke="#8f8f8f" stroke-opacity="0.8" stroke-linecap="round"/>
<rect x="101.5" y="8.5" width="46" height="29" rx="4" fill="url(#as)" stroke="#000000" stroke-opacity="0.85"/>
<text x="124.5" y="28.4" text-anchor="middle" font-family="Arial, Helvetica, sans-serif" font-size="15" font-weight="bold" letter-spacing="0.5" fill="#5c5c5c">AUS</text>
</g></g></g>
<g transform="translate(108 0)"><defs><linearGradient id="bf" x1="0" y1="0" x2="0" y2="1"><stop offset="0" stop-color="#3f3f3f"/><stop offset="1" stop-color="#1b1b1b"/></linearGradient><linearGradient id="bs" x1="0" y1="0" x2="0" y2="1"><stop offset="0" stop-color="#101010"/><stop offset="1" stop-color="#202020"/></linearGradient><linearGradient id="bk" x1="0" y1="0" x2="0" y2="1"><stop offset="0" stop-color="#6e6e6e"/><stop offset="1" stop-color="#434343"/></linearGradient><filter id="bg" x="-60%" y="-60%" width="220%" height="220%"><feGaussianBlur stdDeviation="2.2"/></filter><clipPath id="bw"><rect x="4.5" y="6" width="96" height="34" rx="4"/></clipPath></defs>

<rect x="2.5" y="5.5" width="100" height="35" rx="6" fill="url(#bf)" stroke="#0d0d0d"/>
<g clip-path="url(#bw)"><g transform="translate(-48 0)">
<rect x="5.5" y="8.5" width="46" height="29" rx="4" fill="url(#bs)" stroke="#000000" stroke-opacity="0.85"/>
<text x="28.5" y="28.4" text-anchor="middle" font-family="Arial, Helvetica, sans-serif" font-size="15" font-weight="bold" letter-spacing="0.5" fill="#00ccff" opacity="0.55" filter="url(#bg)">EIN</text><text x="28.5" y="28.4" text-anchor="middle" font-family="Arial, Helvetica, sans-serif" font-size="15" font-weight="bold" letter-spacing="0.5" fill="#00ccff">EIN</text>
<rect x="53.5" y="8.5" width="46" height="29" rx="4" fill="url(#bk)" stroke="#161616"/>
<path d="M55.5 10.5h42" stroke="#8f8f8f" stroke-opacity="0.8" stroke-linecap="round"/>
<rect x="101.5" y="8.5" width="46" height="29" rx="4" fill="url(#bs)" stroke="#000000" stroke-opacity="0.85"/>
<text x="124.5" y="28.4" text-anchor="middle" font-family="Arial, Helvetica, sans-serif" font-size="15" font-weight="bold" letter-spacing="0.5" fill="#5c5c5c">AUS</text>
</g></g></g>
</svg>
