<svg xmlns="http://www.w3.org/2000/svg" width="800" height="135" viewBox="0 0 800 135">
<defs>
<linearGradient id="on" x1="0" y1="0" x2="0" y2="27" gradientUnits="userSpaceOnUse"><stop offset="0" stop-color="#3061a8"/><stop offset="0.5" stop-color="#5c95e5"/><stop offset="0.52" stop-color="#6aa2e9"/><stop offset="1" stop-color="#8bbaf6"/></linearGradient>
<linearGradient id="off" x1="0" y1="0" x2="0" y2="27" gradientUnits="userSpaceOnUse"><stop offset="0" stop-color="#adadad"/><stop offset="0.5" stop-color="#e6e6e6"/><stop offset="0.52" stop-color="#efefef"/><stop offset="1" stop-color="#fdfdfd"/></linearGradient>
<linearGradient id="onD" x1="0" y1="27" x2="0" y2="54" gradientUnits="userSpaceOnUse"><stop offset="0" stop-color="#acc0dc"/><stop offset="0.5" stop-color="#bed5f5"/><stop offset="0.52" stop-color="#c3daf6"/><stop offset="1" stop-color="#d1e3fb"/></linearGradient>
<linearGradient id="offD" x1="0" y1="27" x2="0" y2="54" gradientUnits="userSpaceOnUse"><stop offset="0" stop-color="#dedede"/><stop offset="0.5" stop-color="#f5f5f5"/><stop offset="0.52" stop-color="#f9f9f9"/><stop offset="1" stop-color="#fefefe"/></linearGradient>
<linearGradient id="handle" x1="0" y1="54" x2="0" y2="81" gradientUnits="userSpaceOnUse"><stop offset="0" stop-color="#ebeaea"/><stop offset="1" stop-color="#fcfcfc"/></linearGradient>
<linearGradient id="handleD" x1="0" y1="81" x2="0" y2="108" gradientUnits="userSpaceOnUse"><stop offset="0" stop-color="#f7f7f7"/><stop offset="1" stop-color="#fefefe"/></linearGradient>
<linearGradient id="handleA" x1="0" y1="108" x2="0" y2="135" gradientUnits="userSpaceOnUse"><stop offset="0" stop-color="#d5d4d4"/><stop offset="1" stop-color="#e6e6e6"/></linearGradient>
</defs>
<rect x="0" y="0" width="800" height="27" rx="3" fill="url(#off)"/>
<path d="M3 0h397v27H3a3 3 0 0 1-3-3V3a3 3 0 0 1 3-3z" fill="url(#on)"/>
<rect x="0" y="27" width="800" height="27" rx="3" fill="url(#offD)"/>
<path d="M3 27h397v27H3a3 3 0 0 1-3-3V30a3 3 0 0 1 3-3z" fill="url(#onD)"/>
<rect x="0.5" y="54.5" width="799" height="26" rx="2.5" fill="url(#handle)" stroke="#a4a4a4"/>
<rect x="0.5" y="81.5" width="799" height="26" rx="2.5" fill="url(#handleD)" stroke="#dbdbdb"/>
<rect x="0.5" y="108.5" width="799" height="26" rx="2.5" fill="url(#handleA)" stroke="#8e8e8e"/>
</svg>
