<svg xmlns="http://www.w3.org/2000/svg" width="260" height="96" viewBox="0 0 260 96">

<text x="16" y="28" font-family="Arial, Helvetica, sans-serif" font-size="12" fill="#555555">OFF</text>
<g transform="translate(16 34)">
<defs><linearGradient id="sap" x1="0" y1="0" x2="0" y2="1"><stop offset="0" stop-color="#ececec"/><stop offset="1" stop-color="#d4d4d4"/></linearGradient><linearGradient id="sar" x1="0" y1="0" x2="0" y2="1"><stop offset="0" stop-color="#e3e3e3"/><stop offset="1" stop-color="#cbcbcb"/></linearGradient><linearGradient id="sae" x1="0" y1="0" x2="0" y2="1"><stop offset="0" stop-color="#bdbdbd"/><stop offset="1" stop-color="#999999"/></linearGradient><linearGradient id="saf" x1="0" y1="29.5" x2="0" y2="35.5" gradientUnits="userSpaceOnUse"><stop offset="0" stop-color="#9c9c9c"/><stop offset="1" stop-color="#303030"/></linearGradient><linearGradient id="sal" x1="0" y1="33.5" x2="0" y2="35.5" gradientUnits="userSpaceOnUse"><stop offset="0" stop-color="#7c7c7c"/><stop offset="1" stop-color="#626262"/></linearGradient><linearGradient id="sat" x1="8.5" y1="0" x2="52.5" y2="0" gradientUnits="userSpaceOnUse"><stop offset="0" stop-opacity="0"/><stop offset="1" stop-opacity="0.04"/></linearGradient><linearGradient id="sah" x1="8.5" y1="0" x2="44.5" y2="0" gradientUnits="userSpaceOnUse"><stop offset="0" stop-color="#ffffff"/><stop offset="1" stop-color="#9a9a9a"/></linearGradient><filter id="sas" x="-20%" y="-60%" width="140%" height="220%"><feGaussianBlur stdDeviation="1.4"/></filter></defs>
<path d="M53 3.5L7.5 3.5Q6.5 3.5 5.79 4.21L5.5 4.5Q4.5 5.5 4.5 7L4.5 32.5Q4.5 35.5 7.5 35.5L53 35.5Z" fill="url(#sap)"/>
<path d="M53 33.5L4.5 33.5L4.5 34.5Q4.5 35.5 7.5 35.5L53 35.5Z" fill="url(#sal)"/>
<path d="M53 5.5H7" stroke="#ffffff" stroke-opacity="0.6"/>
<path d="M53 3.5L7.5 3.5Q6.5 3.5 5.79 4.21L5.5 4.5Q4.5 5.5 4.5 7L4.5 32.5Q4.5 35.5 7.5 35.5L53 35.5" fill="none" stroke="#9a9a9a"/>
<g transform="matrix(-1 0 0 1 105 0)"><path d="M5.5 35.5L46.5 35.5L8.5 42L5.5 40.5Z" fill="#000000" opacity="0.5" filter="url(#sas)"/>
<path d="M53 3.5L9.5 1.54Q8.5 1.5 7.7 2.1L5.7 3.6Q4.5 4.5 4.5 6L4.5 32.5Q4.5 35.5 7.5 35.5L53 35.5Z" fill="url(#sap)"/>
<path d="M53 3.5L9.5 1.54Q8.5 1.5 7.7 2.1L5.7 3.6Q4.5 4.5 4.5 6L4.5 32.5Q4.5 35.5 7.5 35.5L53 35.5Z" fill="url(#sar)" opacity="1"/>
<path d="M53 3.5L9.5 1.54Q8.5 1.5 8.5 2.5L8.5 29.5L53 33.5Z" fill="url(#sat)" opacity="1"/>
<path d="M53 33.5L4.5 33.5L4.5 34.5Q4.5 35.5 7.5 35.5L53 35.5Z" fill="url(#sal)"/>
<path d="M53 33.5L8.5 29.5L4.5 30.5L4.5 33Q4.5 35.5 7.5 35.5L53 35.5Z" fill="url(#saf)" opacity="1"/>
<path d="M8.5 2.5Q8.5 1.5 7.7 2.1L5.7 3.6Q4.5 4.5 4.5 6L4.5 30.5L8.5 29.5Z" fill="url(#sae)" opacity="1"/>
<path d="M8.5 2.5V29.5" stroke="#ffffff" stroke-opacity="0.6"/>
<path d="M53 3.5L9.5 1.54Q8.5 1.5 7.7 2.1L5.7 3.6Q4.5 4.5 4.5 6L4.5 32.5Q4.5 35.5 7.5 35.5L53 35.5" fill="none" stroke="#9a9a9a"/>
<path d="M53 3.5L8.5 1.5" stroke="url(#sah)" stroke-opacity="1"/></g>
<text x="25" y="25" text-anchor="middle" font-family="Arial, Helvetica, sans-serif" font-size="14" font-weight="bold" letter-spacing="0.5" fill="#5c5c5c">OFF</text>
<g transform="rotate(-5 77.5 17.5)"><text x="77.5" y="22.5" text-anchor="middle" font-family="Arial, Helvetica, sans-serif" font-size="14" font-weight="bold" letter-spacing="0.5" fill="#5c5c5c">ON</text></g>
</g>
<text x="139" y="28" font-family="Arial, Helvetica, sans-serif" font-size="12" fill="#555555">ON</text>
<g transform="translate(139 34)">
<defs><linearGradient id="sbp" x1="0" y1="0" x2="0" y2="1"><stop offset="0" stop-color="#ececec"/><stop offset="1" stop-color="#d4d4d4"/></linearGradient><linearGradient id="sbr" x1="0" y1="0" x2="0" y2="1"><stop offset="0" stop-color="#e3e3e3"/><stop offset="1" stop-color="#cbcbcb"/></linearGradient><linearGradient id="sbe" x1="0" y1="0" x2="0" y2="1"><stop offset="0" stop-color="#bdbdbd"/><stop offset="1" stop-color="#999999"/></linearGradient><linearGradient id="sbf" x1="0" y1="29.5" x2="0" y2="35.5" gradientUnits="userSpaceOnUse"><stop offset="0" stop-color="#9c9c9c"/><stop offset="1" stop-color="#303030"/></linearGradient><linearGradient id="sbl" x1="0" y1="33.5" x2="0" y2="35.5" gradientUnits="userSpaceOnUse"><stop offset="0" stop-color="#7c7c7c"/><stop offset="1" stop-color="#626262"/></linearGradient><linearGradient id="sbt" x1="8.5" y1="0" x2="52.5" y2="0" gradientUnits="userSpaceOnUse"><stop offset="0" stop-opacity="0"/><stop offset="1" stop-opacity="0.04"/></linearGradient><linearGradient id="sbh" x1="8.5" y1="0" x2="44.5" y2="0" gradientUnits="userSpaceOnUse"><stop offset="0" stop-color="#ffffff"/><stop offset="1" stop-color="#9a9a9a"/></linearGradient><filter id="sbs" x="-20%" y="-60%" width="140%" height="220%"><feGaussianBlur stdDeviation="1.4"/></filter></defs>
<g transform="matrix(-1 0 0 1 105 0)"><path d="M53 3.5L7.5 3.5Q6.5 3.5 5.79 4.21L5.5 4.5Q4.5 5.5 4.5 7L4.5 32.5Q4.5 35.5 7.5 35.5L53 35.5Z" fill="url(#sbp)"/>
<path d="M53 33.5L4.5 33.5L4.5 34.5Q4.5 35.5 7.5 35.5L53 35.5Z" fill="url(#sbl)"/>
<path d="M53 5.5H7" stroke="#ffffff" stroke-opacity="0.6"/>
<path d="M53 3.5L7.5 3.5Q6.5 3.5 5.79 4.21L5.5 4.5Q4.5 5.5 4.5 7L4.5 32.5Q4.5 35.5 7.5 35.5L53 35.5" fill="none" stroke="#9a9a9a"/></g>
<path d="M5.5 35.5L46.5 35.5L8.5 42L5.5 40.5Z" fill="#000000" opacity="0.5" filter="url(#sbs)"/>
<path d="M53 3.5L9.5 1.54Q8.5 1.5 7.7 2.1L5.7 3.6Q4.5 4.5 4.5 6L4.5 32.5Q4.5 35.5 7.5 35.5L53 35.5Z" fill="url(#sbp)"/>
<path d="M53 3.5L9.5 1.54Q8.5 1.5 7.7 2.1L5.7 3.6Q4.5 4.5 4.5 6L4.5 32.5Q4.5 35.5 7.5 35.5L53 35.5Z" fill="url(#sbr)" opacity="1"/>
<path d="M53 3.5L9.5 1.54Q8.5 1.5 8.5 2.5L8.5 29.5L53 33.5Z" fill="url(#sbt)" opacity="1"/>
<path d="M53 33.5L4.5 33.5L4.5 34.5Q4.5 35.5 7.5 35.5L53 35.5Z" fill="url(#sbl)"/>
<path d="M53 33.5L8.5 29.5L4.5 30.5L4.5 33Q4.5 35.5 7.5 35.5L53 35.5Z" fill="url(#sbf)" opacity="1"/>
<path d="M8.5 2.5Q8.5 1.5 7.7 2.1L5.7 3.6Q4.5 4.5 4.5 6L4.5 30.5L8.5 29.5Z" fill="url(#sbe)" opacity="1"/>
<path d="M8.5 2.5V29.5" stroke="#ffffff" stroke-opacity="0.6"/>
<path d="M53 3.5L9.5 1.54Q8.5 1.5 7.7 2.1L5.7 3.6Q4.5 4.5 4.5 6L4.5 32.5Q4.5 35.5 7.5 35.5L53 35.5" fill="none" stroke="#9a9a9a"/>
<path d="M53 3.5L8.5 1.5" stroke="url(#sbh)" stroke-opacity="1"/>
<g transform="rotate(5 27.5 17.5)"><text x="27.5" y="22.5" text-anchor="middle" font-family="Arial, Helvetica, sans-serif" font-size="14" font-weight="bold" letter-spacing="0.5" fill="#5c5c5c">OFF</text></g>
<text x="80" y="25" text-anchor="middle" font-family="Arial, Helvetica, sans-serif" font-size="14" font-weight="bold" letter-spacing="0.5" fill="#5c5c5c">ON</text>
</g>
</svg>
